<svg width="368" height="102" viewBox="0 0 368 102" fill="none" xmlns="http://www.w3.org/2000/svg">
<path fill-rule="evenodd" clip-rule="evenodd" d="M35.8764 81.6826C35.8764 77.9402 35.8764 74.2014 35.8764 70.459C38.2339 69.9095 41.1808 70.3549 43.6102 70.3585C48.9792 70.3585 54.3447 70.3621 59.7102 70.3549C63.6525 70.3477 67.8823 70.4949 71.2461 68.103C74.7572 65.6068 75.1237 61.7352 75.1309 57.7306C75.1417 49.7142 75.2028 41.6979 75.1273 33.6816C75.0842 29.2963 74.8362 24.6309 70.7573 22.0306C67.5625 19.9978 63.3902 19.8864 59.7102 19.8828C55.8181 19.8792 51.9261 19.8721 48.0341 19.8721C46.0144 19.8721 43.9012 20.0409 41.8995 19.7966C41.8995 16.7869 41.8995 13.7736 41.8995 10.7639C43.107 10.4909 44.4942 10.6633 45.7341 10.6633C48.6234 10.6561 51.5128 10.6741 54.4022 10.6777C65.5823 10.6849 82.7569 9.49248 88.0469 22.2353C89.9839 26.8935 89.7431 31.9109 89.7467 36.8673C89.7503 40.8754 89.7395 44.88 89.7359 48.8882C89.7287 57.2206 91.407 68.7315 84.888 75.0167C76.3636 83.2378 63.7244 81.7365 52.8102 81.7365C49.0978 81.7365 45.3819 81.7293 41.6659 81.7293C39.7541 81.7293 37.7775 81.8873 35.8764 81.6826ZM284.298 19.1861C284.298 21.6714 284.298 24.1568 284.298 26.6421C287.259 26.6421 290.22 26.6421 293.178 26.6421C293.178 24.1209 293.178 21.596 293.178 19.0747C309.346 19.0747 325.511 19.0747 341.679 19.0747C341.679 21.5888 341.679 24.1029 341.679 26.617C325.536 26.617 309.393 26.617 293.25 26.617C293.149 33.3871 293.246 40.1715 293.254 46.9452C293.254 49.4054 292.639 52.9933 294.547 54.9292C296.574 56.9799 299.92 56.021 302.443 56.3909C302.443 58.6536 302.443 60.9163 302.443 63.1754C300.955 63.398 299.356 63.2544 297.85 63.2508C294.051 63.2508 289.8 63.5633 286.867 60.6649C284.075 57.8958 284.287 53.5716 284.255 49.9513C284.183 42.2115 284.327 34.4717 284.226 26.7355C280.941 26.1285 275.695 26.6242 272.198 26.6206C264 26.6206 255.8 26.6673 247.602 26.617C221.483 26.4554 195.349 26.5128 169.226 26.617C158.024 26.6637 146.815 26.6601 135.61 26.617C131.653 26.6026 123.014 25.9669 119.596 27.1449C116.463 28.2224 115.791 31.2716 115.755 34.2131C115.704 38.6918 115.747 43.174 115.751 47.6527C115.751 50.0518 115.827 52.7024 117.785 54.4156C121.156 57.3606 127.089 56.3011 131.19 56.2975C132.243 56.294 133.429 56.1287 134.446 56.4017C134.446 58.6428 134.446 60.884 134.446 63.1251C132.218 63.7356 129.26 63.24 126.942 63.2508C120.114 63.2867 110.404 63.9044 106.77 56.5956C104.406 51.844 105.254 45.5409 105.272 40.4013C105.297 33.9689 103.946 25.0978 110.515 21.2404C115.37 18.3852 121.551 19.0747 126.942 19.0675C137.263 19.0496 147.585 19.0855 157.902 19.0675C186.21 19.0244 214.518 19.0675 242.826 19.0675C252.087 19.0675 261.345 19.0568 270.602 19.0747C274.609 19.0819 280.525 18.5755 284.298 19.1861ZM154.391 30.6503C160.159 29.8314 166.782 31.5697 170.664 36.0448C172.629 38.3111 173.585 41.0335 174.106 43.939C175.616 52.3504 171.045 60.6613 162.599 62.8557C156.49 64.4432 148.325 63.5058 143.865 58.589C138.248 52.3935 137.975 41.4788 143.897 35.3337C146.686 32.4389 150.51 31.1998 154.391 30.6503ZM209.796 63.2436C206.889 63.2436 203.981 63.2436 201.074 63.2436C200.761 61.4802 200.973 59.5264 200.973 57.7306C200.97 53.7224 200.991 49.7142 200.955 45.7061C200.937 43.6194 201.34 40.0817 199.378 38.6559C197.344 37.1797 190.907 37.4886 188.417 37.8513C188.417 46.3166 188.417 54.7783 188.417 63.2436C185.473 63.2436 182.53 63.2436 179.587 63.2436C179.587 52.4725 179.587 41.7015 179.587 30.9304C181.571 30.4133 185.585 30.8514 187.802 30.8478C194.663 30.8406 205.124 29.2388 208.782 36.6877C210.73 40.6492 209.94 47.9903 209.94 52.4259C209.94 54.7352 210.425 61.4586 209.796 63.2436ZM244.569 30.9089C244.569 33.1321 244.569 35.3516 244.569 37.5748C243.401 37.8585 242.082 37.7041 240.882 37.7041C235.498 37.7077 224.685 35.779 224.678 43.9354C231.315 43.9354 237.953 43.9354 244.591 43.9354C244.591 46.1119 244.591 48.2884 244.591 50.4613C237.989 50.4613 231.384 50.4613 224.782 50.4613C224.196 52.9359 226.568 55.4894 228.846 56.0677C232.16 56.9081 237.356 56.3406 240.882 56.3371C242.082 56.3335 243.462 56.1503 244.605 56.4915C244.605 58.6787 244.605 60.866 244.605 63.0533C243.092 63.7249 239.142 63.2472 237.342 63.2472C230.812 63.2436 223.201 63.9799 218.597 58.3447C212.858 51.3233 214.144 37.2947 222.511 32.737C226.895 30.3486 232.354 30.8371 237.166 30.8406C239.57 30.8406 242.197 30.5497 244.569 30.9089ZM278.278 30.9628C278.278 33.168 278.278 35.3696 278.278 37.5748C275.396 38.2105 269.237 37.7077 266.002 37.7077C264.363 37.7077 262.419 37.4922 260.885 38.2033C256.806 40.0889 257.859 46.0832 257.92 49.7717C257.956 52.0452 258.193 54.4694 260.471 55.5792C264.931 57.7449 273.323 55.3817 278.282 56.4663C278.282 58.6823 278.282 60.8947 278.282 63.1107C276.417 63.7177 272.845 63.2436 270.782 63.2472C264.507 63.2544 255.153 64.7556 251.253 58.4058C248.986 54.7173 249.55 49.8507 249.582 45.7061C249.607 41.7625 249.377 37.1546 252.339 34.0838C256.662 29.6087 265.28 30.8442 270.958 30.8514C273.24 30.855 276.075 30.3953 278.278 30.9628ZM341.55 63.1646C339.336 63.6854 334.492 63.2436 331.998 63.2436C328.753 63.2436 325.507 63.2328 322.266 63.2436C315.945 63.2723 309.842 63.5309 308.053 56.1287C307.733 54.8142 307.826 53.3058 307.934 51.9697C308.714 42.0678 320.692 43.7415 327.574 43.7235C329.083 43.7199 330.866 43.9713 332.31 43.5835C332.799 39.8518 330.136 37.7867 326.69 37.7077C322.859 37.6215 319.017 37.7077 315.19 37.7077C313.418 37.7077 311.553 37.8549 309.806 37.6035C309.806 35.3911 309.806 33.1787 309.806 30.9664C312.52 30.4851 315.607 30.8478 318.374 30.8442C325.134 30.8406 335.937 29.1311 339.929 36.1023C342.632 40.8144 341.697 47.2109 341.69 52.4259C341.687 54.7532 342.114 61.3473 341.55 63.1646ZM156.677 37.3916C145.953 37.6682 146.154 56.5633 157.018 56.5418C168.173 56.5166 168.026 37.0971 156.677 37.3916ZM330.88 50.1273C329.694 49.9297 328.422 50.059 327.218 50.0626C325.569 50.0662 323.915 50.077 322.266 50.0626C319.538 50.0375 315.553 49.7142 315.564 53.4854C315.567 54.5987 316.027 55.9204 317.181 56.3335C318.636 56.8542 320.397 56.5956 321.91 56.6028C324.861 56.6208 327.951 56.865 330.88 56.5525C330.88 54.4084 330.88 52.2678 330.88 50.1273ZM315.402 68.6668C317.885 68.1102 321.572 68.4944 323.355 70.5129C326.719 74.3164 326.187 83.0869 320.713 84.7534C317.652 85.6836 313.357 85.2634 311.291 82.5805C309.077 79.7109 309.034 73.9321 311.258 71.0373C312.279 69.712 313.81 69.0224 315.402 68.6668ZM340.727 68.8572C340.727 69.7012 340.727 70.5452 340.727 71.3892C338.29 71.8633 335.548 71.4575 333.058 71.5113C331.797 71.5365 330.488 71.9818 330.478 73.4652C330.463 75.0778 331.915 75.3723 333.234 75.3651C335.588 75.3543 338.725 74.8156 340.54 76.6868C342.571 78.7771 341.809 83.2306 339.135 84.405C337.536 85.109 335.649 84.8791 333.942 84.8683C331.825 84.8575 329.425 85.1772 327.358 84.7821C327.358 83.8986 327.358 83.0151 327.358 82.1316C329.694 81.5138 332.745 82.013 335.182 82.0094C336.583 82.0059 338.096 81.7652 338.075 80.009C338.053 78.2706 336.343 78.1809 335.002 78.1521C332.483 78.1018 328.943 78.7375 327.423 76.1768C326.977 75.4297 326.931 74.6755 326.909 73.8207C326.737 67.7654 332.515 68.7459 336.774 68.7135C337.974 68.7028 339.624 68.4154 340.727 68.8572ZM118.087 68.868C118.087 69.694 118.087 70.5201 118.087 71.3461C115.456 72.1111 111.058 70.1178 109.537 73.3035C109.304 73.792 109.042 74.5282 109.113 75.0562C112.114 75.1747 115.111 75.2933 118.112 75.4118C118.112 76.2378 118.112 77.0603 118.112 77.8863C115.097 78.0192 112.085 78.1521 109.074 78.285C108.898 83.8232 114.996 81.3953 118.188 82.1603C118.188 83.0294 118.188 83.9022 118.188 84.7749C115.877 85.1844 110.551 85.1556 108.485 84.0459C104.269 81.7832 104.445 73.4652 107.507 70.3944C109.408 68.4873 115.647 68.2251 118.087 68.868ZM125.702 68.7566C127.118 72.7181 128.534 76.6796 129.95 80.6411C131.366 76.6796 132.782 72.7145 134.198 68.753C135.786 68.753 137.375 68.753 138.963 68.753C138.963 74.0398 138.963 79.323 138.963 84.6097C138.219 85.0766 136.757 84.933 135.89 84.7821C135.366 83.2557 135.768 78.364 135.822 76.4713C135.847 75.5626 136.099 73.8997 135.61 73.1742C134.313 77.0675 133.015 80.9643 131.718 84.8575C130.608 84.8575 129.497 84.8575 128.387 84.8575C127.345 82.0849 126.378 79.2619 125.497 76.4318C125.253 75.6488 124.858 73.6555 124.182 73.2892C124.182 77.1465 124.182 81.0002 124.182 84.8575C123.129 84.8575 122.08 84.8575 121.027 84.8575C121.027 79.4882 121.027 74.1224 121.027 68.7566C122.586 68.7566 124.146 68.7566 125.702 68.7566ZM145.331 79.4774C145.331 81.266 145.331 83.0546 145.331 84.8432C144.224 84.8432 143.118 84.8432 142.011 84.8432C142.011 79.5205 142.011 74.1942 142.011 68.868C143.621 68.5232 145.464 68.7459 147.11 68.7459C151.229 68.7494 155.246 68.3328 155.882 73.4652C155.965 74.126 155.836 74.7653 155.721 75.4118C154.646 81.4348 148.249 77.9725 145.331 79.4774ZM158.121 68.7961C160.741 68.6058 167.483 68.2646 169.708 69.3744C172.155 70.5955 172.396 74.5282 171.016 76.5826C170.462 77.4087 169.614 77.6565 168.91 78.2419C170.074 80.3609 171.242 82.4835 172.407 84.6061C171.616 85.188 169.69 84.9653 168.712 84.7821C167.645 82.7206 166.577 80.6626 165.51 78.6011C164.159 78.6011 162.804 78.6011 161.449 78.6011C161.449 80.6806 161.449 82.7601 161.449 84.836C160.339 84.836 159.232 84.836 158.121 84.836C158.121 79.4918 158.121 74.144 158.121 68.7961ZM186.408 68.868C186.408 69.694 186.408 70.5201 186.408 71.3461C183.155 72.2117 177.725 69.7228 177.366 75.0275C180.406 75.1316 183.447 75.2394 186.487 75.3435C186.487 76.2594 186.487 77.1716 186.487 78.0875C183.447 78.0875 180.406 78.0875 177.366 78.0875C177.265 78.7052 177.423 79.0967 177.567 79.6893C178.505 83.5359 183.741 81.4025 186.455 82.2142C186.455 83.0546 186.455 83.895 186.455 84.7354C185.15 85.1125 183.504 84.8611 182.142 84.8647C179.903 84.8719 177.643 84.9653 175.871 83.3635C172.676 80.4723 172.856 73.3646 175.803 70.3944C177.635 68.5483 184.057 68.1892 186.408 68.868ZM201.243 68.868C201.243 69.694 201.243 70.5201 201.243 71.3461C198.454 72.0537 194.199 70.1825 192.632 73.4436C192.327 74.0757 192.237 74.5785 192.402 75.2537C195.295 75.2537 198.188 75.2537 201.077 75.2537C201.484 75.9254 201.422 77.344 201.131 78.0803C198.17 78.0803 195.209 78.0803 192.248 78.0803C191.439 83.3563 198.26 81.8371 201.293 82.1316C201.293 83.0151 201.293 83.8986 201.293 84.7821C198.997 85.1521 193.549 85.1987 191.54 83.9812C187.605 81.5892 187.475 72.9623 190.947 70.1573C193.142 68.3867 198.591 68.3041 201.243 68.868ZM204.139 68.789C205.228 68.674 207.277 68.3687 208.29 68.8069C209.045 69.1337 209.649 70.9618 210.03 71.6658C210.967 73.3897 213.569 78.8022 214.791 79.833C214.791 76.148 214.791 72.4631 214.791 68.7818C215.866 68.7818 216.944 68.7818 218.018 68.7818C218.018 74.1404 218.018 79.499 218.018 84.8611C216.739 84.8611 215.463 84.8611 214.184 84.8611C212.703 82.1316 211 79.5169 209.537 76.7766C209.023 75.814 208.384 73.9285 207.41 73.4652C207.41 77.2578 207.41 81.0541 207.41 84.8468C206.321 84.8468 205.232 84.8468 204.139 84.8468C204.139 79.4918 204.139 74.1404 204.139 68.789ZM221.034 84.7821C221.034 79.4774 221.034 74.1727 221.034 68.868C223.617 68.3113 230.927 68.3795 233.037 70.0855C236.559 72.9372 236.702 81.7257 232.465 84.0602C230.359 85.2239 223.459 85.1987 221.034 84.7821ZM241.223 68.771C241.223 74.1332 241.223 79.4954 241.223 84.8575C240.091 84.8575 238.956 84.8575 237.824 84.8575C237.824 79.4954 237.824 74.1332 237.824 68.771C238.956 68.771 240.091 68.771 241.223 68.771ZM249.101 68.7566C250.488 72.6966 251.879 76.6365 253.266 80.5764C254.682 76.6329 256.098 72.6894 257.51 68.7423C259.063 68.7423 260.615 68.7423 262.164 68.7423C262.164 74.1116 262.164 79.481 262.164 84.854C261.129 84.854 260.098 84.854 259.063 84.854C259.063 80.9104 259.063 76.9705 259.063 73.0306C257.683 76.9741 256.299 80.914 254.919 84.8575C253.837 84.8575 252.756 84.8575 251.674 84.8575C250.28 80.9428 248.889 77.028 247.498 73.1132C247.498 77.028 247.498 80.9392 247.498 84.854C246.441 84.854 245.385 84.854 244.328 84.854C244.328 79.4882 244.328 74.1224 244.328 68.7566C245.92 68.7566 247.509 68.7566 249.101 68.7566ZM277.139 68.868C277.139 69.694 277.139 70.5201 277.139 71.3461C274.447 72.1291 269.833 70.0604 268.485 73.5657C268.309 74.0326 268.101 74.5678 268.18 75.0562C271.166 75.1747 274.153 75.2933 277.139 75.4118C277.139 76.3025 277.139 77.1932 277.139 78.0839C274.153 78.0839 271.166 78.0839 268.176 78.0839C267.497 83.5251 274.041 81.6503 277.168 82.1316C277.168 83.0151 277.168 83.8986 277.168 84.7821C274.584 85.1844 269.743 85.2885 267.443 83.9776C263.3 81.6144 263.451 72.9156 266.947 70.0819C268.906 68.4945 274.785 68.3041 277.139 68.868ZM284.05 68.7423C286.246 72.4344 288.442 76.1301 290.637 79.8222C290.637 76.1409 290.637 72.4559 290.637 68.771C291.719 68.771 292.804 68.771 293.89 68.771C293.89 74.1296 293.89 79.4882 293.89 84.8468C292.603 84.8468 291.32 84.8468 290.037 84.8468C287.777 81.0146 285.52 77.1824 283.259 73.3502C283.259 77.1896 283.259 81.0254 283.259 84.8611C282.17 84.8611 281.082 84.8611 279.989 84.8611C279.989 79.4882 279.989 74.1152 279.989 68.7423C281.344 68.7423 282.695 68.7423 284.05 68.7423ZM309.052 68.7243C309.052 69.6581 309.052 70.5883 309.052 71.5221C307.438 71.5221 305.821 71.5221 304.207 71.5221C304.096 75.9613 303.981 80.4004 303.87 84.8432C302.777 84.8432 301.681 84.8432 300.588 84.8432C300.588 80.3968 300.588 75.9541 300.588 71.5078C298.889 71.5078 297.189 71.5078 295.485 71.5078C295.485 70.5811 295.485 69.6545 295.485 68.7243C300.01 68.7243 304.531 68.7243 309.052 68.7243ZM316.473 71.3174C311.442 72.5206 312.189 84.2039 319.075 82.1962C323.473 80.914 322.866 69.791 316.473 71.3174ZM161.478 75.5878C163.357 76.069 168.378 76.4641 168.41 73.6447C168.443 70.8828 163.253 71.1342 161.478 71.6981C161.478 72.9947 161.478 74.2912 161.478 75.5878ZM224.433 81.8873C226.058 82.189 229.13 82.4476 230.543 81.4276C231.75 80.5621 231.995 78.716 232.052 77.3548C232.235 73.124 230.938 71.4826 226.726 71.5006C225.957 71.5042 225.134 71.3641 224.433 71.6909C224.433 75.0921 224.433 78.4897 224.433 81.8873ZM145.374 76.2953C147.455 76.8304 152.303 77.089 152.292 73.9967C152.282 70.9403 147.434 71.0947 145.374 71.6981C145.374 73.2317 145.374 74.7617 145.374 76.2953Z" fill="white" stroke="white" stroke-width="0.25" stroke-linejoin="round"/>
<path fill-rule="evenodd" clip-rule="evenodd" d="M66.0891 22.7633C66.0891 26.4051 66.0891 30.0433 66.0891 33.6816C63.2428 34.1377 60.1163 33.8288 57.2341 33.8109C52.1633 33.7821 47.0889 33.7965 42.0181 33.7965C38.2734 33.7965 33.9681 33.3045 30.7158 35.5528C27.1184 38.0453 27.0466 42.4378 27.0789 46.4136C27.1436 54.5449 27.0789 62.6833 27.0789 70.8146C27.0789 75.2609 27.2837 80.0593 31.6573 82.4871C37.1953 85.5615 47.9766 84.5523 54.4022 84.5056C56.3356 84.4912 58.5063 84.2362 60.3966 84.6457C60.3966 87.6877 60.3966 90.7333 60.3966 93.7754C58.8081 94.0878 57.0831 93.9119 55.4659 93.9119C52.5766 93.9119 49.6872 93.9334 46.7978 93.9154C42.1691 93.8831 37.4217 94.2602 32.8181 93.7395C25.2138 92.8811 17.2141 89.0704 14.0695 81.6898C12.2906 77.5057 12.3338 73.1599 12.3481 68.692C12.3625 64.0948 12.323 59.4976 12.3266 54.9004C12.3302 46.2879 10.6375 34.6369 17.5519 28.0644C23 22.8854 29.9359 22.6555 37.0659 22.634C41.9606 22.6196 46.8553 22.6268 51.75 22.6376C54.8766 22.6483 57.9995 22.6304 61.1261 22.6304C62.7648 22.6268 64.4755 22.4688 66.0891 22.7633ZM64.1341 41.3962C64.8564 43.1202 64.3605 45.7887 64.3605 47.6527C64.3605 51.1293 64.3641 54.6059 64.3569 58.0826C64.3533 59.6916 64.6588 61.6597 64.267 63.2113C62.4953 63.9547 58.5566 63.4555 56.5261 63.4555C51.8686 63.4555 47.2075 63.4412 42.55 63.4412C40.5088 63.4412 37.8063 63.8865 35.8692 63.2508C35.8692 55.9671 35.8692 48.6799 35.8692 41.3962C45.292 41.3962 54.7148 41.3962 64.1341 41.3962Z" fill="white" stroke="white" stroke-width="0.25" stroke-linejoin="round"/>
</svg>
