<svg width="149" height="42" viewBox="0 0 149 42" fill="none" xmlns="http://www.w3.org/2000/svg">
<path d="M33.4978 29.2366L22.5944 4.01893C21.9241 2.56152 22.5944 0.927446 24.069 0.22082C24.4265 0.132493 24.784 0 25.1415 0C26.3033 0 27.3758 0.66246 27.912 1.76656L36.4024 21.3312L44.848 1.76656C45.2949 0.66246 46.412 0 47.5292 0C47.8867 0 48.2442 0.132493 48.6017 0.22082C50.0763 0.927446 50.7466 2.56152 50.0763 4.01893L39.2176 29.2366C38.726 30.3849 37.5642 30.959 36.4024 30.959C35.1065 30.959 33.8999 30.3849 33.4978 29.2366Z" fill="white"/>
<path d="M58.832 25.7035C62.3175 25.7035 65.1327 22.9211 65.1327 19.4322C65.1327 15.9874 62.3175 13.1167 58.832 13.1167C55.3465 13.1167 52.4419 15.9874 52.4419 19.4322C52.4419 22.9211 55.3465 25.7035 58.832 25.7035ZM65.1774 29.1041C63.3453 30.2965 61.1556 30.959 58.832 30.959C52.3972 30.959 47.2136 25.836 47.2136 19.4322C47.2136 13.0726 52.3972 7.94953 58.832 7.94953C65.2668 7.94953 70.4503 13.0726 70.4503 19.4322V28.3533C70.4503 29.7666 69.1991 30.959 67.6798 30.959C66.518 30.959 65.4902 30.164 65.1774 29.1041Z" fill="white"/>
<path d="M89.3434 19.4322C89.3434 15.9874 86.5282 13.1167 83.0874 13.1167C79.5572 13.1167 76.742 15.9874 76.742 19.4322C76.742 22.877 79.5572 25.7035 83.0874 25.7035C86.5282 25.7035 89.3434 22.877 89.3434 19.4322ZM71.4243 19.4322C71.4243 13.0284 76.6079 7.90536 83.0874 7.90536C89.4775 7.90536 94.6611 13.0284 94.6611 19.4322C94.6611 25.836 89.4775 30.959 83.0874 30.959C76.6079 30.959 71.4243 25.836 71.4243 19.4322Z" fill="white"/>
<path d="M106.773 25.7035C110.259 25.7035 113.074 22.9211 113.074 19.4322C113.074 15.9874 110.259 13.1167 106.773 13.1167C103.288 13.1167 100.383 15.9874 100.383 19.4322C100.383 22.9211 103.288 25.7035 106.773 25.7035ZM113.119 29.1041C111.287 30.2965 109.097 30.959 106.773 30.959C100.339 30.959 95.1551 25.836 95.1551 19.4322C95.1551 13.0726 100.339 7.94953 106.773 7.94953C113.208 7.94953 118.392 13.0726 118.392 19.4322V28.3533C118.392 29.7666 117.141 30.959 115.621 30.959C114.459 30.959 113.432 30.164 113.119 29.1041Z" fill="white"/>
<path d="M126.828 7.90536H135.587C137.017 7.90536 138.179 9.09779 138.179 10.511C138.179 11.9243 137.017 13.1167 135.587 13.1167H126.382C124.415 13.1167 123.924 15.1483 125.89 15.8107L134.425 18.5047C138.715 19.8297 140.1 23.2303 139.519 26.0568C138.849 28.6625 136.257 30.959 132.235 30.959H122.896C121.466 30.959 120.215 29.7666 120.215 28.3533C120.215 26.8517 121.466 25.7035 122.896 25.7035H132.638C134.693 25.7035 135.095 23.6719 133.174 23.0536L124.549 20.3155C120.394 19.0789 118.919 15.6341 119.5 12.8517C120.17 10.1577 122.762 7.90536 126.828 7.90536Z" fill="white"/>
<path d="M77.7016 33.6544C78.8601 35.4233 80.899 36.6026 83.2623 36.6026C85.533 36.6026 87.5256 35.4233 88.7304 33.6544C89.2865 32.838 90.167 32.3391 91.1401 32.3391C91.6035 32.3391 92.0669 32.4752 92.484 32.7473C93.8278 33.6091 94.2449 35.2873 93.4108 36.5119C91.2328 39.8229 87.4793 42 83.2623 42C78.9064 42 75.1992 39.8229 72.9749 36.5119C72.1408 35.2873 72.5578 33.6091 73.9017 32.7473C74.3651 32.4752 74.7822 32.3391 75.2919 32.3391C76.265 32.3391 77.0992 32.838 77.7016 33.6544Z" fill="#D8E8F6"/>
<path d="M0 19.7317C0 12.7275 5.66954 7.12421 12.7565 7.12421C19.0125 7.12421 24.2422 11.6165 25.1708 17.558C25.8062 20.0698 24.9753 21.8088 21.8473 21.8088H6.20717C7.03805 24.5621 9.67732 26.5909 12.7565 26.5909C14.6137 26.5909 16.3244 25.818 17.5951 24.6104C18.2305 24.0308 19.0125 23.7409 19.7456 23.7409C20.4299 23.7409 21.163 23.9825 21.7495 24.6104C22.8248 25.6731 22.8248 27.5087 21.7495 28.668C19.4524 30.9383 16.2266 32.3391 12.7565 32.3391C5.66954 32.3391 0 26.7358 0 19.7317ZM19.208 17.7512C18.426 14.9495 15.8356 12.8241 12.7565 12.8241C9.67732 12.8241 7.03805 14.9495 6.20717 17.7512H19.208Z" fill="#D8E8F6"/>
<path d="M89.1975 5.99596C89.1975 4.02928 90.8209 2.52839 92.8108 2.52839C94.7484 2.52839 96.3194 4.02928 96.3194 5.99596C96.3194 7.96264 94.8007 9.56703 92.8108 9.56703C90.8209 9.56703 89.1975 7.96264 89.1975 5.99596Z" fill="white"/>
<path d="M143.729 12.3435V8.4877H144.938C145.303 8.4877 145.599 8.52815 145.826 8.60907C146.053 8.68998 146.216 8.81446 146.317 8.98251C146.424 9.14434 146.478 9.35285 146.478 9.60803C146.478 9.84455 146.412 10.0468 146.279 10.2149C146.153 10.3829 145.971 10.5199 145.732 10.6257L146.837 12.3435H145.939L145.042 10.8311H144.513V12.3435H143.729ZM144.513 10.2522H144.929C145.168 10.2522 145.351 10.2024 145.476 10.1028C145.609 10.0033 145.675 9.84766 145.675 9.63604C145.675 9.43065 145.609 9.28749 145.476 9.20658C145.351 9.12566 145.162 9.08521 144.91 9.08521H144.513V10.2522ZM144.985 14.3975C144.431 14.3975 143.911 14.2948 143.427 14.0894C142.942 13.884 142.513 13.6008 142.142 13.2398C141.777 12.8726 141.49 12.4493 141.282 11.9701C141.074 11.4908 140.97 10.9773 140.97 10.4296C140.97 9.87567 141.074 9.36218 141.282 8.88915C141.49 8.40989 141.777 7.98977 142.142 7.62877C142.513 7.26155 142.942 6.97524 143.427 6.76985C143.911 6.56445 144.431 6.46175 144.985 6.46175C145.546 6.46175 146.065 6.56445 146.544 6.76985C147.029 6.97524 147.454 7.26155 147.819 7.62877C148.191 7.98977 148.48 8.40989 148.688 8.88915C148.896 9.36218 149 9.87567 149 10.4296C149 10.9773 148.896 11.4908 148.688 11.9701C148.48 12.4493 148.191 12.8726 147.819 13.2398C147.454 13.6008 147.029 13.884 146.544 14.0894C146.065 14.2948 145.546 14.3975 144.985 14.3975ZM144.985 13.6786C145.439 13.6786 145.864 13.5977 146.261 13.4359C146.664 13.2678 147.016 13.0344 147.319 12.7356C147.621 12.4369 147.854 12.0914 148.018 11.6993C148.188 11.301 148.273 10.8777 148.273 10.4296C148.273 9.98148 148.188 9.56135 148.018 9.16923C147.854 8.77089 147.621 8.42234 147.319 8.12359C147.016 7.82483 146.664 7.59454 146.261 7.43271C145.864 7.26466 145.439 7.18064 144.985 7.18064C144.532 7.18064 144.104 7.26466 143.701 7.43271C143.304 7.59454 142.954 7.82483 142.652 8.12359C142.35 8.42234 142.114 8.77089 141.943 9.16923C141.78 9.56135 141.698 9.98148 141.698 10.4296C141.698 10.8777 141.78 11.301 141.943 11.6993C142.114 12.0914 142.35 12.4369 142.652 12.7356C142.954 13.0344 143.304 13.2678 143.701 13.4359C144.104 13.5977 144.532 13.6786 144.985 13.6786Z" fill="white"/>
</svg>
