<svg width="144" height="40" viewBox="0 0 144 40" fill="none" xmlns="http://www.w3.org/2000/svg">
<path d="M32.3736 27.8444L21.8362 3.82755C21.1884 2.43954 21.8362 0.883282 23.2614 0.210305C23.6068 0.126184 23.9523 0 24.2978 0C25.4207 0 26.4572 0.630914 26.9753 1.68244L35.1808 20.3155L43.3431 1.68244C43.7749 0.630914 44.8546 0 45.9343 0C46.2798 0 46.6253 0.126184 46.9707 0.210305C48.3959 0.883282 49.0437 2.43954 48.3959 3.82755L37.9015 27.8444C37.4265 28.9379 36.3036 29.4847 35.1808 29.4847C33.9284 29.4847 32.7623 28.9379 32.3736 27.8444Z" fill="white"/>
<path d="M56.8576 24.4793C60.2262 24.4793 62.947 21.8295 62.947 18.5067C62.947 15.2259 60.2262 12.4919 56.8576 12.4919C53.4891 12.4919 50.6819 15.2259 50.6819 18.5067C50.6819 21.8295 53.4891 24.4793 56.8576 24.4793ZM62.9901 27.718C61.2195 28.8537 59.1033 29.4845 56.8576 29.4845C50.6388 29.4845 45.6292 24.6055 45.6292 18.5067C45.6292 12.4499 50.6388 7.5708 56.8576 7.5708C63.0765 7.5708 68.0862 12.4499 68.0862 18.5067V27.003C68.0862 28.349 66.8769 29.4845 65.4086 29.4845C64.2857 29.4845 63.2925 28.7275 62.9901 27.718Z" fill="white"/>
<path d="M86.3454 18.5068C86.3454 15.2259 83.6246 12.492 80.2993 12.492C76.8876 12.492 74.1668 15.2259 74.1668 18.5068C74.1668 21.7875 76.8876 24.4794 80.2993 24.4794C83.6246 24.4794 86.3454 21.7875 86.3454 18.5068ZM69.0276 18.5068C69.0276 12.4079 74.0373 7.52881 80.2993 7.52881C86.475 7.52881 91.4846 12.4079 91.4846 18.5068C91.4846 24.6055 86.475 29.4846 80.2993 29.4846C74.0373 29.4846 69.0276 24.6055 69.0276 18.5068Z" fill="white"/>
<path d="M103.19 24.4793C106.559 24.4793 109.28 21.8295 109.28 18.5067C109.28 15.2259 106.559 12.4919 103.19 12.4919C99.8219 12.4919 97.0147 15.2259 97.0147 18.5067C97.0147 21.8295 99.8219 24.4793 103.19 24.4793ZM109.323 27.718C107.552 28.8537 105.436 29.4845 103.19 29.4845C96.9716 29.4845 91.9619 24.6055 91.9619 18.5067C91.9619 12.4499 96.9716 7.5708 103.19 7.5708C109.41 7.5708 114.419 12.4499 114.419 18.5067V27.003C114.419 28.349 113.209 29.4845 111.741 29.4845C110.618 29.4845 109.626 28.7275 109.323 27.718Z" fill="white"/>
<path d="M122.572 7.52881H131.037C132.419 7.52881 133.542 8.66446 133.542 10.0104C133.542 11.3564 132.419 12.492 131.037 12.492H122.14C120.24 12.492 119.765 14.4268 121.666 15.0577L129.914 17.6235C134.06 18.8852 135.399 22.124 134.838 24.8159C134.19 27.2974 131.685 29.4846 127.798 29.4846H118.772C117.39 29.4846 116.181 28.349 116.181 27.0031C116.181 25.573 117.39 24.4794 118.772 24.4794H128.186C130.173 24.4794 130.562 22.5446 128.705 21.9557L120.37 19.348C116.354 18.1703 114.928 14.8895 115.49 12.2397C116.138 9.67393 118.643 7.52881 122.572 7.52881Z" fill="white"/>
<path d="M75.0941 32.052C76.2137 33.7367 78.1843 34.8597 80.4683 34.8597C82.6627 34.8597 84.5885 33.7367 85.7529 32.052C86.2903 31.2745 87.1412 30.7993 88.0817 30.7993C88.5296 30.7993 88.9774 30.9289 89.3805 31.188C90.6792 32.0088 91.0822 33.6071 90.2761 34.7734C88.1713 37.9267 84.5437 40.0001 80.4683 40.0001C76.2586 40.0001 72.6758 37.9267 70.5261 34.7734C69.7199 33.6071 70.123 32.0088 71.4218 31.188C71.8696 30.9289 72.2727 30.7993 72.7653 30.7993C73.7058 30.7993 74.5119 31.2745 75.0941 32.052Z" fill="#3977F2"/>
<path d="M0 18.7923C0 12.1216 5.47929 6.78516 12.3284 6.78516C18.3745 6.78516 23.4287 11.0636 24.3262 16.722C24.9402 19.1142 24.1372 20.7704 21.1142 20.7704H5.99888C6.80187 23.3927 9.35258 25.3248 12.3284 25.3248C14.1234 25.3248 15.7766 24.5888 17.0047 23.4387C17.6187 22.8867 18.3745 22.6107 19.083 22.6107C19.7443 22.6107 20.4529 22.8406 21.0196 23.4387C22.0589 24.4508 22.0589 26.199 21.0196 27.3031C18.7996 29.4652 15.6821 30.7994 12.3284 30.7994C5.47929 30.7994 0 25.4629 0 18.7923ZM18.5634 16.906C17.8077 14.2378 15.3043 12.2136 12.3284 12.2136C9.35258 12.2136 6.80187 14.2378 5.99888 16.906H18.5634Z" fill="#3977F2"/>
<path d="M86.2043 5.71065C86.2043 3.83762 87.7732 2.4082 89.6964 2.4082C91.569 2.4082 93.0872 3.83762 93.0872 5.71065C93.0872 7.58368 91.6196 9.11168 89.6964 9.11168C87.7732 9.11168 86.2043 7.58368 86.2043 5.71065Z" fill="white"/>
<path d="M138.905 13.1725V9.50028H140.074C140.427 9.50028 140.713 9.5388 140.932 9.61587C141.151 9.69292 141.31 9.81148 141.407 9.97153C141.51 10.1257 141.562 10.3242 141.562 10.5673C141.562 10.7925 141.498 10.9852 141.37 11.1453C141.249 11.3053 141.072 11.4357 140.841 11.5364L141.909 13.1725H141.042L140.175 11.732H139.664V13.1725H138.905ZM139.664 11.1807H140.065C140.297 11.1807 140.473 11.1334 140.595 11.0385C140.722 10.9437 140.786 10.7955 140.786 10.594C140.786 10.3983 140.722 10.262 140.595 10.1849C140.473 10.1079 140.29 10.0693 140.047 10.0693H139.664V11.1807ZM140.12 15.1286C139.585 15.1286 139.083 15.0308 138.613 14.8352C138.145 14.6396 137.731 14.3699 137.372 14.0261C137.019 13.6763 136.742 13.2733 136.541 12.8169C136.341 12.3604 136.24 11.8713 136.24 11.3497C136.24 10.8222 136.341 10.3332 136.541 9.88262C136.742 9.42618 137.019 9.02606 137.372 8.68225C137.731 8.33251 138.145 8.05984 138.613 7.86423C139.083 7.66862 139.585 7.5708 140.12 7.5708C140.662 7.5708 141.164 7.66862 141.626 7.86423C142.095 8.05984 142.506 8.33251 142.859 8.68225C143.218 9.02606 143.498 9.42618 143.699 9.88262C143.9 10.3332 144 10.8222 144 11.3497C144 11.8713 143.9 12.3604 143.699 12.8169C143.498 13.2733 143.218 13.6763 142.859 14.0261C142.506 14.3699 142.095 14.6396 141.626 14.8352C141.164 15.0308 140.662 15.1286 140.12 15.1286ZM140.12 14.444C140.558 14.444 140.969 14.3669 141.352 14.2129C141.742 14.0528 142.082 13.8305 142.375 13.546C142.667 13.2614 142.893 12.9324 143.051 12.559C143.215 12.1796 143.297 11.7765 143.297 11.3497C143.297 10.9229 143.215 10.5228 143.051 10.1494C142.893 9.76999 142.667 9.43803 142.375 9.15351C142.082 8.86898 141.742 8.64965 141.352 8.49553C140.969 8.33548 140.558 8.25546 140.12 8.25546C139.682 8.25546 139.268 8.33548 138.878 8.49553C138.495 8.64965 138.157 8.86898 137.865 9.15351C137.573 9.43803 137.345 9.76999 137.18 10.1494C137.022 10.5228 136.943 10.9229 136.943 11.3497C136.943 11.7765 137.022 12.1796 137.18 12.559C137.345 12.9324 137.573 13.2614 137.865 13.546C138.157 13.8305 138.495 14.0528 138.878 14.2129C139.268 14.3669 139.682 14.444 140.12 14.444Z" fill="white"/>
</svg>
