<svg width="142" height="39" viewBox="0 0 142 39" fill="none" xmlns="http://www.w3.org/2000/svg">
<path d="M31.924 27.1483L21.5329 3.73186C20.8941 2.37855 21.5329 0.8612 22.9383 0.205047C23.2789 0.123029 23.6196 0 23.9603 0C25.0676 0 26.0897 0.615141 26.6007 1.64038L34.6922 19.8076L42.7411 1.64038C43.1669 0.615141 44.2316 0 45.2963 0C45.637 0 45.9777 0.123029 46.3183 0.205047C47.7237 0.8612 48.3625 2.37855 47.7237 3.73186L37.3751 27.1483C36.9067 28.2145 35.7994 28.7476 34.6922 28.7476C33.4572 28.7476 32.3073 28.2145 31.924 27.1483Z" fill="#010D27"/>
<path d="M56.068 23.8675C59.3898 23.8675 62.0728 21.2839 62.0728 18.0442C62.0728 14.8454 59.3898 12.1798 56.068 12.1798C52.7463 12.1798 49.9781 14.8454 49.9781 18.0442C49.9781 21.2839 52.7463 23.8675 56.068 23.8675ZM62.1153 27.0252C60.3693 28.1325 58.2825 28.7476 56.068 28.7476C49.9356 28.7476 44.9955 23.9905 44.9955 18.0442C44.9955 12.1388 49.9356 7.3817 56.068 7.3817C62.2005 7.3817 67.1406 12.1388 67.1406 18.0442V26.3281C67.1406 27.6404 65.9481 28.7476 64.5002 28.7476C63.3929 28.7476 62.4135 28.0095 62.1153 27.0252Z" fill="#010D27"/>
<path d="M85.1461 18.0442C85.1461 14.8454 82.4631 12.1798 79.184 12.1798C75.8196 12.1798 73.1366 14.8454 73.1366 18.0442C73.1366 21.2429 75.8196 23.8675 79.184 23.8675C82.4631 23.8675 85.1461 21.2429 85.1461 18.0442ZM68.0688 18.0442C68.0688 12.0978 73.0089 7.34069 79.184 7.34069C85.2739 7.34069 90.2139 12.0978 90.2139 18.0442C90.2139 23.9905 85.2739 28.7476 79.184 28.7476C73.0089 28.7476 68.0688 23.9905 68.0688 18.0442Z" fill="#010D27"/>
<path d="M101.757 23.8675C105.079 23.8675 107.762 21.2839 107.762 18.0442C107.762 14.8454 105.079 12.1798 101.757 12.1798C98.4355 12.1798 95.6673 14.8454 95.6673 18.0442C95.6673 21.2839 98.4355 23.8675 101.757 23.8675ZM107.805 27.0252C106.058 28.1325 103.972 28.7476 101.757 28.7476C95.6248 28.7476 90.6847 23.9905 90.6847 18.0442C90.6847 12.1388 95.6248 7.3817 101.757 7.3817C107.89 7.3817 112.83 12.1388 112.83 18.0442V26.3281C112.83 27.6404 111.637 28.7476 110.189 28.7476C109.082 28.7476 108.103 28.0095 107.805 27.0252Z" fill="#010D27"/>
<path d="M120.87 7.34069H129.217C130.58 7.34069 131.687 8.44795 131.687 9.76025C131.687 11.0726 130.58 12.1798 129.217 12.1798H120.444C118.57 12.1798 118.102 14.0662 119.976 14.6814L128.11 17.183C132.198 18.4132 133.518 21.571 132.965 24.1956C132.326 26.6151 129.856 28.7476 126.023 28.7476H117.122C115.76 28.7476 114.567 27.6404 114.567 26.3281C114.567 24.9338 115.76 23.8675 117.122 23.8675H126.406C128.365 23.8675 128.749 21.9811 126.917 21.4069L118.698 18.8644C114.738 17.7161 113.332 14.5174 113.886 11.9338C114.525 9.43218 116.995 7.34069 120.87 7.34069Z" fill="#010D27"/>
<path d="M74.0511 31.2506C75.1552 32.8931 77.0984 33.9881 79.3507 33.9881C81.5146 33.9881 83.4137 32.8931 84.5619 31.2506C85.0918 30.4925 85.9309 30.0292 86.8583 30.0292C87.3 30.0292 87.7416 30.1555 88.1391 30.4082C89.4198 31.2084 89.8172 32.7668 89.0223 33.9039C86.9467 36.9784 83.3695 39 79.3507 39C75.1994 39 71.6664 36.9784 69.5466 33.9039C68.7516 32.7668 69.1491 31.2084 70.4298 30.4082C70.8714 30.1555 71.2689 30.0292 71.7547 30.0292C72.6821 30.0292 73.477 30.4925 74.0511 31.2506Z" fill="#3977F2"/>
<path d="M0 18.3223C0 11.8184 5.40319 6.61534 12.1572 6.61534C18.1193 6.61534 23.1033 10.7868 23.9883 16.3038C24.5938 18.6362 23.802 20.251 20.8209 20.251H5.91556C6.7074 22.8077 9.22268 24.6915 12.1572 24.6915C13.9272 24.6915 15.5575 23.9739 16.7685 22.8525C17.374 22.3143 18.1193 22.0452 18.818 22.0452C19.4701 22.0452 20.1688 22.2694 20.7277 22.8525C21.7525 23.8393 21.7525 25.5438 20.7277 26.6203C18.5385 28.7284 15.4643 30.0292 12.1572 30.0292C5.40319 30.0292 0 24.8261 0 18.3223ZM18.3056 16.4832C17.5604 13.8817 15.0917 11.9081 12.1572 11.9081C9.22268 11.9081 6.7074 13.8817 5.91556 16.4832H18.3056Z" fill="#3977F2"/>
<path d="M85.007 5.56768C85.007 3.74147 86.5541 2.34779 88.4506 2.34779C90.2971 2.34779 91.7943 3.74147 91.7943 5.56768C91.7943 7.39388 90.347 8.88368 88.4506 8.88368C86.5541 8.88368 85.007 7.39388 85.007 5.56768Z" fill="#010D27"/>
<path d="M136.976 12.8434V9.26294H138.129C138.477 9.26294 138.759 9.3005 138.975 9.37564C139.191 9.45077 139.347 9.56636 139.443 9.72241C139.545 9.87268 139.596 10.0663 139.596 10.3033C139.596 10.5229 139.533 10.7107 139.407 10.8668C139.287 11.0228 139.113 11.15 138.885 11.2482L139.938 12.8434H139.083L138.228 11.4389H137.724V12.8434H136.976ZM137.724 10.9014H138.12C138.348 10.9014 138.522 10.8552 138.642 10.7627C138.768 10.6703 138.831 10.5258 138.831 10.3293C138.831 10.1385 138.768 10.0056 138.642 9.93047C138.522 9.85534 138.342 9.81777 138.102 9.81777H137.724V10.9014ZM138.174 14.7506C137.646 14.7506 137.151 14.6552 136.688 14.4645C136.226 14.2738 135.818 14.0108 135.464 13.6756C135.116 13.3346 134.843 12.9416 134.645 12.4966C134.447 12.0516 134.348 11.5747 134.348 11.0661C134.348 10.5518 134.447 10.075 134.645 9.63572C134.843 9.19069 135.116 8.80058 135.464 8.46536C135.818 8.12437 136.226 7.85851 136.688 7.66779C137.151 7.47707 137.646 7.3817 138.174 7.3817C138.708 7.3817 139.203 7.47707 139.659 7.66779C140.121 7.85851 140.527 8.12437 140.875 8.46536C141.229 8.80058 141.505 9.19069 141.703 9.63572C141.901 10.075 142 10.5518 142 11.0661C142 11.5747 141.901 12.0516 141.703 12.4966C141.505 12.9416 141.229 13.3346 140.875 13.6756C140.527 14.0108 140.121 14.2738 139.659 14.4645C139.203 14.6552 138.708 14.7506 138.174 14.7506ZM138.174 14.0831C138.606 14.0831 139.011 14.0079 139.389 13.8577C139.773 13.7016 140.109 13.4849 140.398 13.2075C140.686 12.93 140.908 12.6093 141.064 12.2452C141.226 11.8753 141.307 11.4823 141.307 11.0661C141.307 10.65 141.226 10.2599 141.064 9.8958C140.908 9.52591 140.686 9.20225 140.398 8.92484C140.109 8.64742 139.773 8.43358 139.389 8.28331C139.011 8.12726 138.606 8.04924 138.174 8.04924C137.742 8.04924 137.334 8.12726 136.949 8.28331C136.571 8.43358 136.238 8.64742 135.95 8.92484C135.662 9.20225 135.437 9.52591 135.275 9.8958C135.119 10.2599 135.041 10.65 135.041 11.0661C135.041 11.4823 135.119 11.8753 135.275 12.2452C135.437 12.6093 135.662 12.93 135.95 13.2075C136.238 13.4849 136.571 13.7016 136.949 13.8577C137.334 14.0079 137.742 14.0831 138.174 14.0831Z" fill="#010D27"/>
</svg>
