<svg width="104" height="29" viewBox="0 0 104 29" fill="none" xmlns="http://www.w3.org/2000/svg">
<path d="M14.3367 0C6.43269 0 0 6.43013 0 14.3367C0 22.2432 6.43013 28.6733 14.3367 28.6733C22.2432 28.6733 28.6733 22.2432 28.6733 14.3367C28.6733 6.43013 22.2432 0 14.3367 0ZM7.14658 14.3367C7.14658 10.3655 10.3655 7.14658 14.3367 7.14658C18.3078 7.14658 21.5267 10.3655 21.5267 14.3367C21.5267 18.3078 18.3078 21.5267 14.3367 21.5267C10.3655 21.5267 7.14658 18.3078 7.14658 14.3367ZM14.3367 28.2281C13.3797 28.2281 12.4457 28.1309 11.5425 27.9466C17.5274 26.309 21.9259 20.841 21.9259 14.3367C21.9259 7.83232 17.5249 2.36428 11.5425 0.726684C12.4457 0.542454 13.3797 0.445222 14.3367 0.445222C21.9975 0.445222 28.2281 6.67833 28.2281 14.3367C28.2281 21.995 21.995 28.2281 14.3367 28.2281Z" fill="#010D27"/>
<path d="M87.8425 8.86081C88.6862 8.86081 89.3701 8.17689 89.3701 7.33324C89.3701 6.48958 88.6862 5.80566 87.8425 5.80566C86.9989 5.80566 86.3149 6.48958 86.3149 7.33324C86.3149 8.17689 86.9989 8.86081 87.8425 8.86081Z" fill="#010D27"/>
<path d="M52.7467 10.1146C52.1403 9.53376 51.3548 9.2395 50.4157 9.2395C49.7479 9.2395 49.1312 9.39303 48.5837 9.6924C48.1538 9.9278 47.7751 10.2425 47.4501 10.6315L47.3094 9.54655H44.7788V20.2805H47.619V15.1246C47.619 14.5054 47.7162 13.9322 47.9056 13.4205C48.0924 12.9164 48.3611 12.5121 48.7039 12.2179C49.0417 11.9287 49.4178 11.788 49.8554 11.788C50.2341 11.788 50.536 11.9057 50.7739 12.1514C51.017 12.3996 51.1757 12.7629 51.2473 13.2235L51.2755 13.4L54.0824 12.809L54.0415 12.6401C53.7779 11.5347 53.3404 10.6852 52.7416 10.112L52.7467 10.1146Z" fill="#010D27"/>
<path d="M60.8708 9.23961C59.6938 9.23961 58.7291 9.54921 57.9973 10.1582V4.54175H55.1571V20.2806H57.6903L57.7824 19.472C58.1201 19.797 58.5142 20.0554 58.9594 20.2397C59.5172 20.4725 60.1595 20.5902 60.8733 20.5902C62.319 20.5902 63.4449 20.0938 64.2202 19.1112C64.9852 18.1415 65.3742 16.7291 65.3742 14.9149C65.3742 13.1008 64.9852 11.6883 64.2202 10.7186C63.4449 9.736 62.319 9.23961 60.8733 9.23961H60.8708ZM62.5314 14.9149C62.5314 15.9998 62.3421 16.7905 61.971 17.2664C61.6077 17.7295 61.0115 17.9624 60.1978 17.9624C59.3841 17.9624 58.8545 17.7551 58.5167 17.3483C58.1713 16.9312 57.9973 16.2352 57.9973 15.2808V14.549C57.9973 13.592 58.1713 12.8961 58.5167 12.4815C58.8545 12.0747 59.42 11.8674 60.1978 11.8674C60.9757 11.8674 61.6103 12.1028 61.971 12.5634C62.3421 13.0393 62.5314 13.83 62.5314 14.9149Z" fill="#010D27"/>
<path d="M71.4971 16.2761L69.1329 9.54663H66.1161L70.0284 20.1091L68.3576 24.1315H71.3615L72.9454 20.1705L76.8807 9.54663H73.864L71.4971 16.2761Z" fill="#010D27"/>
<path d="M81.8524 7.9448V6.08203H79.0122V7.9448C79.0122 8.50005 78.892 8.912 78.654 9.16788C78.416 9.42375 78.0706 9.54657 77.6023 9.54657H77.4335V12.1156H78.9355V15.6057C78.9355 17.0872 79.4114 18.2514 80.3504 19.0651C81.2818 19.8711 82.5919 20.2805 84.2449 20.2805H84.4137V17.6348H84.2449C83.4158 17.6348 82.7864 17.4685 82.377 17.1409C81.9727 16.8185 81.7757 16.317 81.7757 15.6057V12.1156H84.4137V9.54657H81.2179C81.6401 9.1167 81.8524 8.57937 81.8524 7.94224V7.9448Z" fill="#010D27"/>
<path d="M102.233 10.611C102.271 10.5598 102.292 10.4984 102.292 10.4242C102.292 10.3807 102.287 10.3423 102.274 10.3065C102.261 10.2707 102.246 10.24 102.223 10.2144C102.2 10.1888 102.174 10.1658 102.141 10.1479C102.108 10.1299 102.072 10.1171 102.031 10.1095C101.99 10.1018 101.946 10.0967 101.898 10.0967H101.291V11.2891H101.547V10.8438H101.831C101.88 10.8438 101.918 10.849 101.944 10.8617C101.969 10.8745 101.987 10.8924 101.997 10.9155C102.008 10.9385 102.013 10.9667 102.013 10.9999V11.1509C102.013 11.179 102.013 11.2046 102.018 11.2302C102.021 11.2532 102.026 11.2737 102.031 11.2865H102.287C102.276 11.2635 102.271 11.2404 102.269 11.2174C102.269 11.1944 102.269 11.1714 102.269 11.1509V10.9539C102.269 10.9104 102.261 10.872 102.248 10.8413C102.235 10.8106 102.215 10.785 102.184 10.7645C102.156 10.744 102.118 10.7312 102.072 10.7236V10.7133C102.138 10.6954 102.192 10.6596 102.233 10.6084V10.611ZM101.987 10.5931C101.959 10.6263 101.908 10.6417 101.839 10.6417H101.547V10.3065H101.839C101.867 10.3065 101.893 10.3091 101.916 10.3167C101.939 10.3218 101.959 10.3321 101.977 10.3449C101.995 10.3577 102.008 10.3756 102.018 10.3935C102.028 10.414 102.031 10.4396 102.031 10.4703C102.031 10.5189 102.015 10.5598 101.987 10.5931Z" fill="#010D27"/>
<path d="M101.757 9.35205C101.002 9.35205 100.385 9.96615 100.385 10.7235C100.385 11.4809 100.999 12.095 101.757 12.095C102.514 12.095 103.128 11.4809 103.128 10.7235C103.128 9.96615 102.514 9.35205 101.757 9.35205ZM101.757 11.8699C101.125 11.8699 100.611 11.3555 100.611 10.7235C100.611 10.0915 101.125 9.57722 101.757 9.57722C102.389 9.57722 102.903 10.0915 102.903 10.7235C102.903 11.3555 102.389 11.8699 101.757 11.8699Z" fill="#010D27"/>
<path d="M89.2498 9.47241H86.4326V20.2319H89.2498V9.47241Z" fill="#010D27"/>
<path d="M98.1056 14.2393C97.6348 14.0321 97.0258 13.8299 96.2991 13.6406C95.8232 13.5024 95.4547 13.3847 95.204 13.2926C94.9711 13.2056 94.7741 13.0879 94.6206 12.9446C94.4824 12.8167 94.4159 12.6555 94.4159 12.4482C94.4159 12.2282 94.5029 12.0414 94.6846 11.8751C94.8688 11.7087 95.1323 11.6243 95.4675 11.6243C95.859 11.6243 96.1763 11.7215 96.4117 11.9109C96.6471 12.1028 96.7827 12.3407 96.8288 12.6452L96.8544 12.8218L99.4976 12.2742L99.4694 12.113C99.3082 11.22 98.8783 10.5138 98.19 10.0123C97.5094 9.51589 96.5857 9.26514 95.4471 9.26514C94.2291 9.26514 93.2849 9.5466 92.6452 10.0993C91.9979 10.6597 91.6704 11.4631 91.6704 12.4892C91.6704 13.2491 91.8469 13.8606 92.1923 14.311C92.5352 14.7536 92.9446 15.076 93.4154 15.2705C93.8658 15.4573 94.4568 15.6492 95.1758 15.8411C95.6646 15.9665 96.0484 16.0816 96.3145 16.1789C96.5652 16.2735 96.7776 16.4015 96.9439 16.5627C97.0949 16.7085 97.1691 16.9004 97.1691 17.1486C97.1691 17.4301 97.054 17.6629 96.8186 17.86C96.578 18.0621 96.2173 18.1645 95.7516 18.1645C95.2193 18.1645 94.7997 18.0442 94.5003 17.8088C94.2035 17.5759 94.0372 17.2587 93.9911 16.8441L93.9707 16.6599L91.3121 17.2049L91.3275 17.3559C91.435 18.3436 91.8879 19.1291 92.6759 19.6895C93.4513 20.2422 94.5055 20.5236 95.8079 20.5236C97.1103 20.5236 98.1158 20.2319 98.8246 19.6562C99.5436 19.0728 99.907 18.2284 99.907 17.1486C99.907 16.3759 99.7253 15.7464 99.3671 15.2731C99.014 14.8074 98.5867 14.462 98.0979 14.247L98.1056 14.2393Z" fill="#010D27"/>
<path d="M37.9751 9.08862C36.2684 9.08862 34.9404 9.59014 34.0346 10.5778C33.1314 11.5629 32.6733 12.9958 32.6733 14.8407C32.6733 16.6855 33.1314 18.1184 34.0346 19.1036C34.9429 20.0912 36.2684 20.5927 37.9751 20.5927C39.6817 20.5927 40.9867 20.0912 41.8874 19.1036C42.7855 18.1184 43.2384 16.6855 43.2384 14.8407C43.2384 12.9958 42.7829 11.5629 41.8874 10.5778C40.9867 9.59014 39.669 9.08862 37.9751 9.08862ZM39.7969 17.2945C39.4105 17.7909 38.8143 18.0314 37.9776 18.0314C37.1409 18.0314 36.4603 17.7858 36.079 17.3048C35.6875 16.8109 35.4982 15.9819 35.511 14.8432C35.5238 13.7148 35.731 12.8884 36.1276 12.3868C36.514 11.8981 37.1384 11.6499 37.9776 11.6499C38.8169 11.6499 39.4719 11.8981 39.8455 12.3843C40.2293 12.8858 40.4187 13.7097 40.4059 14.8381C40.3931 15.9665 40.1884 16.793 39.7969 17.2945Z" fill="#010D27"/>
</svg>
