<svg width="732" height="520" viewBox="0 0 732 520" fill="none" xmlns="http://www.w3.org/2000/svg">
<g clip-path="url(#clip0_241_101)">
<rect width="732" height="520" rx="31" fill="#3977F2"/>
<g opacity="0.4">
<path d="M393 515.09V504.043C393 464.386 425.224 432.238 464.975 432.238V515.09H393Z" fill="#79A6FF"/>
<path d="M604.004 516.318V505.271C604.004 465.614 636.229 433.466 675.979 433.466V516.318H604.004Z" fill="#79A6FF"/>
<path d="M536.95 432.238V421.805C536.95 382.148 504.726 350 464.975 350V432.238H536.95Z" fill="#D7E3FF"/>
<path d="M675.979 432.852V421.805C675.979 382.148 643.755 350 604.004 350V432.852H675.979Z" fill="#D7E3FF"/>
<path d="M605.234 432.852V446.968C605.234 484.591 574.663 515.09 536.95 515.09V432.852L605.234 432.852Z" fill="#79A6FF"/>
<path d="M839 437.762V427.329C839 387.672 806.776 355.523 767.025 355.523V437.762L839 437.762Z" fill="#79A6FF"/>
<path d="M839 437.762V448.195C839 487.852 806.776 520 767.025 520V437.762L839 437.762Z" fill="#D7E3FF"/>
<path d="M393 350V360.433C393 400.09 425.224 432.238 464.975 432.238V350H393Z" fill="#F6F8FF"/>
<path d="M464.975 432.238V444.513C464.975 484.169 497.2 516.318 536.95 516.318V432.238H464.975Z" fill="#F6F8FF"/>
<path d="M693.819 437.762V428.556C693.819 388.221 726.595 355.523 767.025 355.523V437.762H693.819Z" fill="#F6F8FF"/>
<path d="M729.807 442.058C749.682 442.058 765.794 458.132 765.794 477.96C765.794 497.789 749.682 513.863 729.807 513.863C709.931 513.863 693.819 497.789 693.819 477.96C693.819 458.132 709.931 442.058 729.807 442.058Z" fill="#C9E0F2"/>
</g>
</g>
<defs>
<clipPath id="clip0_241_101">
<rect width="732" height="520" rx="31" fill="white"/>
</clipPath>
</defs>
</svg>
